<svg width="167" height="68" viewBox="0 0 167 68" fill="none" xmlns="http://www.w3.org/2000/svg">
<rect width="166.017" height="67.2289" rx="33.6144" fill="#FF5A20"/>
<path d="M49.9593 22.0312H26.0579C22.9425 22.0312 20.418 24.5563 20.418 27.6712V43.6748C20.418 46.7897 22.9425 49.3147 26.0579 49.3147H30.3619V55.1833C30.3619 55.2203 30.4036 55.2419 30.4337 55.2203L39.245 49.3792L41.4548 49.338H47.655L49.9593 49.3147C53.0742 49.3147 55.5992 46.7897 55.5992 43.6748V27.6712C55.5992 24.5563 53.0742 22.0312 49.9593 22.0312ZM29.5429 30.5094C29.5429 28.9506 30.8065 27.6865 32.3658 27.6865C33.9245 27.6865 35.1881 28.9506 35.1881 30.5094C35.1881 32.0686 33.9245 33.3322 32.3658 33.3322C30.8065 33.3322 29.5429 32.0686 29.5429 30.5094ZM37.8784 44.6152C34.3 44.6152 31.344 42.1076 30.892 38.8597H44.8654C44.4129 42.1076 41.4575 44.6152 37.8784 44.6152ZM43.6868 33.3322C42.1281 33.3322 40.8639 32.0686 40.8639 30.5094C40.8639 28.9506 42.1281 27.6865 43.6868 27.6865C45.2461 27.6865 46.5097 28.9506 46.5097 30.5094C46.5097 32.0686 45.2461 33.3322 43.6868 33.3322Z" fill="white"/>
<path d="M56.7646 40.8719V30.7695H58.1629C59.1867 30.7695 60.0168 31.5996 60.0168 32.6235V39.0185C60.0168 40.0423 59.1867 40.8724 58.1629 40.8724H56.7646V40.8719Z" fill="white"/>
<path d="M16 39.0185V32.6235C16 31.5996 16.8301 30.7695 17.8539 30.7695H19.2522V40.8724H17.8539C16.8301 40.8719 16 40.0418 16 39.0185Z" fill="white"/>
<path d="M40.621 14.7421C40.621 15.9793 39.7977 17.0274 38.6704 17.368V19.7383H37.0863V17.368C35.9589 17.0274 35.1357 15.9793 35.1357 14.7421C35.1357 13.2303 36.3661 12 37.8783 12C39.3906 12 40.621 13.2303 40.621 14.7421Z" fill="white"/>
<path d="M78.7939 42.3945C73.9658 42.3945 70.9307 39.0781 70.9307 33.6523C70.9307 28.2617 73.9893 24.9219 78.7939 24.9219C82.7197 24.9219 85.708 27.3711 86.083 31.0039H83.1064C82.708 28.8828 80.9854 27.4883 78.7939 27.4883C75.8877 27.4883 74.0244 29.8789 74.0244 33.6523C74.0244 37.4492 75.876 39.8281 78.8057 39.8281C81.0439 39.8281 82.6494 38.6211 83.1182 36.582H86.083C85.5557 40.2031 82.79 42.3945 78.7939 42.3945ZM88.1689 42.1133V25.2031H91.0869V42.1133H88.1689ZM93.6416 42.1133V29.6914H96.5596V42.1133H93.6416ZM95.0947 28.0625C94.1924 28.0625 93.4775 27.3594 93.4775 26.4805C93.4775 25.5898 94.1924 24.8867 95.0947 24.8867C96.0088 24.8867 96.7236 25.5898 96.7236 26.4805C96.7236 27.3594 96.0088 28.0625 95.0947 28.0625ZM109.954 34.1211H107.2C106.966 32.7969 106.04 31.8008 104.481 31.8008C102.642 31.8008 101.458 33.3477 101.458 35.9023C101.458 38.5039 102.653 40.0039 104.505 40.0039C105.981 40.0039 106.942 39.1602 107.212 37.7539H109.966C109.731 40.5312 107.587 42.3594 104.47 42.3594C100.837 42.3594 98.4932 39.9336 98.4932 35.9023C98.4932 31.9297 100.837 29.4336 104.446 29.4336C107.728 29.4336 109.755 31.5078 109.954 34.1211ZM114.747 34.8711L119.423 29.6914H122.786L117.817 35.0352L122.997 42.1133H119.622L115.696 36.8047L114.712 37.8008V42.1133H111.794V25.2031H114.712V34.8711H114.747ZM140.306 42.1133L138.864 37.7422H132.642L131.2 42.1133H128.083L134.083 25.2031H137.493L143.493 42.1133H140.306ZM135.712 28.1914L133.345 35.4102H138.149L135.794 28.1914H135.712ZM148.333 42.1133H145.31V25.2031H148.333V42.1133Z" fill="white"/>
</svg>
